
<!-- Generator: visioncortex VTracer 0.6.4 -->
<svg version="1.1" xmlns="http://www.w3.org/2000/svg" viewBox="0 0 234 120" preserveAspectRatio="xMidYMid meet">
<path d="M0 0 C20.014 -0.832 39.576 6.231 56.566 16.219 C53.143 17.36 52.505 17.087 49.242 15.891 C48.387 15.586 47.532 15.282 46.651 14.969 C45.736 14.639 44.821 14.309 43.879 13.969 C22.162 6.507 -2.249 2.549 -23.793 12.82 C-26.395 14.214 -28.93 15.657 -31.434 17.219 C-30.735 17.06 -30.036 16.902 -29.316 16.738 C-18.816 14.846 -8.861 15.874 0.074 21.914 C5.571 26.395 9.283 31.47 11.566 38.219 C11.566 39.539 11.566 40.859 11.566 42.219 C7.55 43.961 3.534 45.702 -0.482 47.443 C-1.841 48.033 -3.201 48.622 -4.56 49.212 C-7.864 50.645 -11.168 52.076 -14.474 53.505 C-17.145 54.659 -19.813 55.821 -22.479 56.987 C-23.753 57.541 -25.027 58.095 -26.301 58.648 C-27.434 59.143 -28.567 59.638 -29.734 60.148 C-32.434 61.219 -32.434 61.219 -34.434 61.219 C-29.943 66.253 -25.772 68.855 -18.996 69.594 C-13.428 69.008 -9.204 67.577 -4.746 64.156 C-2.625 61.462 -1.497 59.255 -0.121 56.156 C2.035 51.563 4.066 49.707 8.699 47.742 C10.566 47.219 10.566 47.219 13.566 47.219 C13.128 58.948 10.109 67.011 1.566 75.219 C-5.838 80.961 -13.975 82.628 -23.207 82.043 C-33.197 80.658 -41.211 75.078 -47.434 67.219 C-51.698 60.436 -52.445 53.046 -53.434 45.219 C-56.074 50.169 -58.714 55.119 -61.434 60.219 C-61.104 60.549 -60.774 60.879 -60.434 61.219 C-60.347 62.707 -60.327 64.2 -60.336 65.691 C-60.339 66.591 -60.342 67.49 -60.346 68.416 C-60.358 69.834 -60.358 69.834 -60.371 71.281 C-60.376 72.231 -60.38 73.18 -60.385 74.158 C-60.397 76.512 -60.415 78.865 -60.434 81.219 C-64.064 81.219 -67.694 81.219 -71.434 81.219 C-71.283 79.946 -71.132 78.674 -70.977 77.363 C-69.763 62.35 -74.056 53.711 -82.684 41.69 C-85.365 37.903 -87.802 33.974 -90.246 30.031 C-90.885 29.033 -90.885 29.033 -91.537 28.014 C-94.434 23.448 -94.434 23.448 -94.434 21.219 C-89.755 20.097 -86.065 19.782 -81.434 21.219 C-77.385 25.328 -75.044 30.82 -72.574 35.965 C-70.768 39.533 -68.618 42.872 -66.434 46.219 C-66.128 45.706 -65.822 45.193 -65.507 44.665 C-53.119 24.064 -40.747 8.825 -16.434 2.219 C-10.973 1.101 -5.545 0.498 0 0 Z M-35.152 34.16 C-39.385 39.58 -40.688 43.212 -40.434 50.219 C-40.104 50.879 -39.774 51.539 -39.434 52.219 C-31.699 49.795 -24.317 46.725 -16.871 43.531 C-15.672 43.02 -14.472 42.509 -13.236 41.982 C-10.301 40.731 -7.367 39.476 -4.434 38.219 C-4.097 35.235 -4.097 35.235 -5.859 33.648 C-6.482 33.135 -7.105 32.622 -7.746 32.094 C-8.361 31.576 -8.976 31.057 -9.609 30.523 C-17.433 24.928 -29.102 27.326 -35.152 34.16 Z M-46.434 31.219 C-45.434 33.219 -45.434 33.219 -45.434 33.219 Z M-66.434 67.219 C-65.434 69.219 -65.434 69.219 -65.434 69.219 Z " fill="#0297B4" transform="translate(98.43359375,-0.21875)"/>
<path d="M0 0 C2.843 2.248 4.264 3.803 5.688 7.125 C5.732 9.125 5.737 11.126 5.688 13.125 C3.606 13.26 1.522 13.357 -0.562 13.438 C-1.723 13.496 -2.883 13.554 -4.078 13.613 C-7.312 13.125 -7.312 13.125 -9.621 10.688 C-10.179 9.842 -10.737 8.996 -11.312 8.125 C-14.793 5.605 -18.119 5.61 -22.312 6.125 C-25.252 8.479 -25.252 8.479 -27.312 11.125 C-26.396 14.518 -25.802 15.838 -22.719 17.648 C-19.029 19.248 -15.299 20.359 -11.438 21.438 C-4.137 23.604 1.774 26.089 6.359 32.441 C8.695 37.16 8.315 41.987 7.688 47.125 C4.467 53.805 -0.473 57.066 -7.25 59.512 C-16.337 62.214 -25.233 61.489 -33.812 57.438 C-39.136 54.519 -42.568 51.613 -45.312 46.125 C-45.312 43.815 -45.312 41.505 -45.312 39.125 C-40.692 39.125 -36.073 39.125 -31.312 39.125 C-30.401 41.143 -29.49 43.161 -28.578 45.18 C-27.036 47.549 -25.966 48.193 -23.312 49.125 C-18.762 49.695 -14.589 49.568 -10.25 48.062 C-8.023 46.137 -8.023 46.137 -7.25 42.688 C-6.95 39.142 -6.95 39.142 -8.989 37.027 C-11.503 34.969 -13.474 34.103 -16.559 33.125 C-17.561 32.795 -18.563 32.465 -19.596 32.125 C-20.637 31.795 -21.678 31.465 -22.75 31.125 C-37.036 26.579 -37.036 26.579 -41.125 20.375 C-42.791 15.815 -43.248 11.821 -41.656 7.234 C-38.707 1.386 -34.109 -1.7 -28.188 -4.188 C-17.607 -6.065 -9.338 -5.286 0 0 Z " fill="#0298B6" transform="translate(157.3125,20.875)"/>
<path d="M0 0 C4.478 3.241 5.718 6.871 7.223 11.969 C7.223 12.629 7.223 13.289 7.223 13.969 C4.974 14.104 2.724 14.201 0.473 14.281 C-0.78 14.339 -2.033 14.397 -3.324 14.457 C-6.777 13.969 -6.777 13.969 -9.117 11.531 C-9.665 10.686 -10.213 9.84 -10.777 8.969 C-14.251 6.453 -17.59 6.595 -21.777 6.969 C-24.298 7.92 -24.298 7.92 -25.777 9.969 C-26.444 12.969 -26.444 12.969 -25.777 15.969 C-22.38 19.418 -18.059 20.164 -13.527 21.344 C-5.239 23.648 2.605 26.153 7.223 33.969 C9.435 39.604 9.643 44.244 7.395 49.895 C4.211 55.529 -0.812 58.381 -6.785 60.426 C-17.274 63.284 -26.75 61.92 -36.234 56.633 C-40.379 53.921 -43.196 51.691 -44.285 46.59 C-44.553 44.393 -44.677 42.18 -44.777 39.969 C-40.157 39.969 -35.537 39.969 -30.777 39.969 C-27.777 45.969 -27.777 45.969 -27.777 47.969 C-22.415 50.397 -17.588 50.657 -11.777 49.969 C-8.488 48.658 -8.488 48.658 -6.777 45.969 C-6.027 42.426 -6.027 42.426 -6.777 38.969 C-9.566 36.362 -12.425 35.228 -16.023 34.066 C-17.527 33.567 -17.527 33.567 -19.061 33.057 C-21.159 32.375 -23.258 31.695 -25.357 31.018 C-32.017 28.798 -36.95 27.075 -40.652 20.781 C-42.225 15.453 -42.204 11.085 -39.867 5.98 C-36.502 0.653 -31.809 -1.761 -25.918 -3.617 C-17.038 -5.335 -7.858 -4.559 0 0 Z " fill="#0298B6" transform="translate(211.77734375,20.03125)"/>
<path d="M0 0 C20.014 -0.832 39.576 6.231 56.566 16.219 C53.143 17.36 52.505 17.087 49.242 15.891 C48.387 15.586 47.532 15.282 46.651 14.969 C45.736 14.639 44.821 14.309 43.879 13.969 C21.837 6.395 -1.332 3.187 -23.406 12.469 C-43.165 22.251 -51.861 41.537 -61.434 60.219 C-61.104 60.549 -60.774 60.879 -60.434 61.219 C-60.347 62.707 -60.327 64.2 -60.336 65.691 C-60.339 66.591 -60.342 67.49 -60.346 68.416 C-60.358 69.834 -60.358 69.834 -60.371 71.281 C-60.376 72.231 -60.38 73.18 -60.385 74.158 C-60.397 76.512 -60.415 78.865 -60.434 81.219 C-64.064 81.219 -67.694 81.219 -71.434 81.219 C-71.283 79.946 -71.132 78.674 -70.977 77.363 C-69.763 62.35 -74.056 53.711 -82.684 41.69 C-85.365 37.903 -87.802 33.974 -90.246 30.031 C-90.885 29.033 -90.885 29.033 -91.537 28.014 C-94.434 23.448 -94.434 23.448 -94.434 21.219 C-89.755 20.097 -86.065 19.782 -81.434 21.219 C-77.385 25.328 -75.044 30.82 -72.574 35.965 C-70.768 39.533 -68.618 42.872 -66.434 46.219 C-66.128 45.706 -65.822 45.193 -65.507 44.665 C-53.119 24.064 -40.747 8.825 -16.434 2.219 C-10.973 1.101 -5.545 0.498 0 0 Z M-66.434 67.219 C-65.434 69.219 -65.434 69.219 -65.434 69.219 Z " fill="#71A456" transform="translate(98.43359375,-0.21875)"/>
<path d="M0 0 C20.22 -0.772 39.681 6.057 56.875 16.164 C53.452 17.305 52.814 17.032 49.551 15.836 C48.696 15.532 47.84 15.228 46.959 14.914 C46.045 14.584 45.13 14.254 44.188 13.914 C24.951 7.305 3.961 3.782 -16.125 9.164 C-15.795 7.514 -15.465 5.864 -15.125 4.164 C-16.445 3.834 -17.765 3.504 -19.125 3.164 C-12.726 1.419 -6.6 0.51 0 0 Z " fill="#60705A" transform="translate(98.125,-0.1640625)"/>
<path d="M0 0 C4.29 0 8.58 0 13 0 C14.344 2.244 15.675 4.494 17 6.75 C17.382 7.384 17.763 8.018 18.156 8.672 C20.179 12.14 21 13.893 21 18 C21.66 18 22.32 18 23 18 C23 19.65 23 21.3 23 23 C22.01 23.33 21.02 23.66 20 24 C20 24.66 20 25.32 20 26 C20.99 26.33 21.98 26.66 23 27 C23 28.32 23 29.64 23 31 C21.68 31.33 20.36 31.66 19 32 C15.987 27.342 12.988 22.675 10 18 C9.535 17.274 9.071 16.547 8.592 15.799 C7.202 13.619 5.819 11.435 4.438 9.25 C3.775 8.214 3.775 8.214 3.1 7.156 C0 2.23 0 2.23 0 0 Z " fill="#71B34D" transform="translate(4,21)"/>
<path d="M0 0 C-0.07 2.27 -0.07 2.27 -1 5 C-3.308 6.455 -5.412 7.572 -7.875 8.688 C-15.486 12.415 -21.021 16.948 -27 23 C-27.759 23.758 -28.519 24.516 -29.301 25.297 C-29.862 25.859 -30.422 26.421 -31 27 C-31 26.01 -31 25.02 -31 24 C-31.66 24 -32.32 24 -33 24 C-32.125 20.125 -32.125 20.125 -31 19 C-31.99 18.34 -32.98 17.68 -34 17 C-28.488 11.277 -22.92 7.039 -15.875 3.438 C-15.219 3.091 -14.563 2.745 -13.887 2.389 C-9.051 0.029 -5.365 -0.329 0 0 Z " fill="#6E8D5C" transform="translate(83,4)"/>
<path d="M0 0 C3.464 1.179 4.9 1.944 6.938 5 C7.63 8.787 7.365 11.931 5.938 15.5 C3.34 17.448 1.084 17.624 -2.121 17.441 C-4.062 17 -4.062 17 -6.562 15 C-8.651 10.823 -8.727 8.651 -8.062 4 C-5.435 0.831 -4.13 0 0 0 Z " fill="#2F994D" transform="translate(32.0625,19)"/>
<path d="M0 0 C66.66 0 133.32 0 202 0 C202 0.33 202 0.66 202 1 C135.34 1 68.68 1 0 1 C0 0.67 0 0.34 0 0 Z " fill="#3D917E" transform="translate(19,88)"/>
<path d="M0 0 C4.495 2.248 5.627 3.663 8 8 C9.68 13.938 8.588 18.55 6 24 C3.938 26.562 3.938 26.562 2 28 C1.34 28 0.68 28 0 28 C0 18.76 0 9.52 0 0 Z " fill="#097D9C" transform="translate(212,48)"/>
<path d="M0 0 C4.164 2.082 6.38 3.686 8 8 C8.777 13.67 8.795 18.383 6.25 23.562 C4 26 4 26 0 29 C0 19.43 0 9.86 0 0 Z " fill="#17768F" transform="translate(157,48)"/>
<path d="M0 0 C15.214 1.7 28.895 7.296 42 15 C38.603 16.132 38.008 15.893 34.781 14.707 C33.94 14.408 33.098 14.109 32.231 13.801 C30.879 13.312 30.879 13.312 29.5 12.812 C19.464 9.304 9.444 6.922 -1 5 C-0.67 3.35 -0.34 1.7 0 0 Z " fill="#435659" transform="translate(113,1)"/>
<path d="M0 0 C-0.334 8.934 -1.495 16.495 -8 23 C-8 16.73 -8 10.46 -8 4 C-8.66 3.67 -9.32 3.34 -10 3 C-3.375 0 -3.375 0 0 0 Z " fill="#435659" transform="translate(112,47)"/>
<path d="M0 0 C0.99 0 1.98 0 3 0 C3.108 2.772 3.187 5.54 3.25 8.312 C3.3 9.491 3.3 9.491 3.352 10.693 C3.45 16.5 3.45 16.5 1.176 19.023 C-1.727 20.326 -3.852 20.335 -7 20 C-7.99 19.34 -8.98 18.68 -10 18 C-9.67 17.34 -9.34 16.68 -9 16 C-7.608 16.526 -7.608 16.526 -6.188 17.062 C-3.02 18.324 -3.02 18.324 0 17 C0 16.01 0 15.02 0 14 C-1.609 14.124 -1.609 14.124 -3.25 14.25 C-7 14 -7 14 -9.438 12.375 C-11.472 9.283 -11.606 7.636 -11 4 C-8.007 -0.549 -5.173 -0.376 0 0 Z M-9 3 C-10.096 5.312 -10.096 5.312 -10 8 C-8.169 10.811 -8.169 10.811 -6 13 C-3.066 12.733 -3.066 12.733 0 12 C2.155 8.767 2.469 7.748 2 4 C0.917 2.083 0.917 2.083 -1 1 C-4.748 0.531 -5.767 0.845 -9 3 Z " fill="#2F8149" transform="translate(142,98)"/>
<path d="M0 0 C0.66 0 1.32 0 2 0 C2 6.6 2 13.2 2 20 C0.35 20 -1.3 20 -3 20 C-4.349 12.156 -3.998 6.95 0 0 Z " fill="#546659" transform="translate(36,61)"/>
<path d="M0 0 C0.33 0 0.66 0 1 0 C1.33 2.64 1.66 5.28 2 8 C2.66 7.67 3.32 7.34 4 7 C7.874 6.641 10.149 6.433 13.438 8.625 C15.459 11.698 15.528 13.382 15 17 C13.875 19.312 13.875 19.312 12 21 C8.71 21.98 6.844 22.333 3.625 21.062 C2.821 20.537 2.821 20.537 2 20 C1.34 20.66 0.68 21.32 0 22 C0 14.74 0 7.48 0 0 Z M2.562 10.125 C0.609 12.965 0.609 12.965 1.75 16.312 C2.163 17.199 2.575 18.086 3 19 C8.282 20.2 8.282 20.2 13 18 C14.096 15.688 14.096 15.688 14 13 C12.504 10.088 12.504 10.088 10 8 C6.349 7.087 5.402 7.649 2.562 10.125 Z " fill="#2F8149" transform="translate(22,91)"/>
<path d="M0 0 C9.157 2.068 16.891 6.448 25 11 C21.466 12.178 20.551 11.754 17.113 10.566 C16.175 10.247 15.238 9.928 14.271 9.6 C13.295 9.257 12.319 8.915 11.312 8.562 C10.324 8.224 9.336 7.886 8.318 7.537 C5.876 6.699 3.437 5.853 1 5 C0.67 3.35 0.34 1.7 0 0 Z " fill="#343939" transform="translate(130,5)"/>
<path d="M0 0 C3.188 3.466 3.847 6.325 4 11 C3.297 14.129 2.406 17.113 1 20 C0.34 20.33 -0.32 20.66 -1 21 C-1.029 17.688 -1.047 14.375 -1.062 11.062 C-1.071 10.117 -1.079 9.171 -1.088 8.197 C-1.091 7.298 -1.094 6.399 -1.098 5.473 C-1.103 4.64 -1.108 3.807 -1.114 2.949 C-1 1 -1 1 0 0 Z " fill="#435659" transform="translate(217,52)"/>
<path d="M0 0 C3.923 3.923 4.17 5.414 4.25 10.812 C4.276 11.85 4.302 12.888 4.328 13.957 C3.96 17.374 3.016 19.246 1 22 C0.67 22 0.34 22 0 22 C0 14.74 0 7.48 0 0 Z " fill="#394648" transform="translate(161,51)"/>
<path d="M0 0 C4.875 4.75 4.875 4.75 6 7 C6 8.98 6 10.96 6 13 C1.71 13 -2.58 13 -7 13 C-7 12.67 -7 12.34 -7 12 C-4.69 12 -2.38 12 0 12 C0 8.04 0 4.08 0 0 Z " fill="#1C7288" transform="translate(157,21)"/>
<path d="M0 0 C2 2 2 2 2.195 5.039 C2.172 6.222 2.149 7.406 2.125 8.625 C2.107 9.814 2.089 11.002 2.07 12.227 C2.047 13.142 2.024 14.057 2 15 C1.34 14.67 0.68 14.34 0 14 C-0.969 14.165 -1.939 14.33 -2.938 14.5 C-6 15 -6 15 -9 14 C-9.33 12.02 -9.66 10.04 -10 8 C-6.911 5.941 -6.291 5.761 -2.812 5.875 C-0.925 5.937 -0.925 5.937 1 6 C0.34 4.68 -0.32 3.36 -1 2 C-3.64 2.33 -6.28 2.66 -9 3 C-9 2.34 -9 1.68 -9 1 C-5.987 -0.507 -3.317 -0.178 0 0 Z M-8 8 C-8.33 8.99 -8.66 9.98 -9 11 C-8.34 11.66 -7.68 12.32 -7 13 C-3.403 12.677 -3.403 12.677 0 12 C0.33 10.35 0.66 8.7 1 7 C-2.343 6.926 -4.804 6.935 -8 8 Z " fill="#2F8149" transform="translate(205,98)"/>
<path d="M0 0 C2 2 2 2 2.195 5.039 C2.172 6.222 2.149 7.406 2.125 8.625 C2.107 9.814 2.089 11.002 2.07 12.227 C2.047 13.142 2.024 14.057 2 15 C1.67 14.34 1.34 13.68 1 13 C0.464 13.351 -0.073 13.701 -0.625 14.062 C-3.756 15.298 -5.776 14.788 -9 14 C-10 13 -10 13 -10.25 10.562 C-10.167 9.717 -10.085 8.871 -10 8 C-6.911 5.941 -6.291 5.761 -2.812 5.875 C-0.925 5.937 -0.925 5.937 1 6 C0.34 4.68 -0.32 3.36 -1 2 C-3.64 2.33 -6.28 2.66 -9 3 C-9 2.34 -9 1.68 -9 1 C-5.987 -0.507 -3.317 -0.178 0 0 Z M-9 9 C-8.67 10.32 -8.34 11.64 -8 13 C-3.811 13.372 -3.811 13.372 -0.125 11.688 C1.277 9.922 1.277 9.922 1 7 C-4.322 6.704 -4.322 6.704 -9 9 Z " fill="#2F8149" transform="translate(69,98)"/>
<path d="M0 0 C6 7.5 6 7.5 6 14 C4.02 14.66 2.04 15.32 0 16 C0 10.72 0 5.44 0 0 Z " fill="#2A6E81" transform="translate(104,28)"/>
<path d="M0 0 C0.081 2.938 0.14 5.874 0.188 8.812 C0.213 9.646 0.238 10.479 0.264 11.338 C0.273 12.14 0.283 12.943 0.293 13.77 C0.309 14.508 0.324 15.246 0.341 16.007 C0 18 0 18 -3 21 C-3 14.73 -3 8.46 -3 2 C-3.66 1.67 -4.32 1.34 -5 1 C-2 0 -2 0 0 0 Z " fill="#2A6E81" transform="translate(107,49)"/>
<path d="M0 0 C8.398 -0.195 8.398 -0.195 11 0 C13 2 13 2 13.195 5.039 C13.172 6.222 13.149 7.406 13.125 8.625 C13.107 9.814 13.089 11.002 13.07 12.227 C13.047 13.142 13.024 14.057 13 15 C12.67 15 12.34 15 12 15 C11.939 14.145 11.879 13.291 11.816 12.41 C11.733 11.305 11.649 10.201 11.562 9.062 C11.481 7.96 11.4 6.858 11.316 5.723 C11.296 3.089 11.296 3.089 10 2 C7.667 1.959 5.333 1.958 3 2 C2.67 6.29 2.34 10.58 2 15 C1.34 15 0.68 15 0 15 C0 10.05 0 5.1 0 0 Z " fill="#2F8149" transform="translate(95,98)"/>
<path d="M0 0 C2.213 3.32 2.208 4.074 1.977 7.887 C1.925 8.825 1.873 9.762 1.82 10.729 C1.756 11.705 1.691 12.681 1.625 13.688 C1.568 14.676 1.512 15.664 1.453 16.682 C1.312 19.122 1.16 21.561 1 24 C0.34 23.67 -0.32 23.34 -1 23 C-1.029 19.542 -1.047 16.083 -1.062 12.625 C-1.071 11.64 -1.079 10.655 -1.088 9.641 C-1.091 8.7 -1.094 7.759 -1.098 6.789 C-1.103 5.92 -1.108 5.05 -1.114 4.155 C-1 2 -1 2 0 0 Z " fill="#2A6E81" transform="translate(215,50)"/>
<path d="M0 0 C0.66 0 1.32 0 2 0 C2 6.6 2 13.2 2 20 C1.34 20 0.68 20 0 20 C-0.194 17.042 -0.381 14.084 -0.562 11.125 C-0.619 10.283 -0.675 9.441 -0.732 8.574 C-0.781 7.769 -0.829 6.963 -0.879 6.133 C-0.926 5.389 -0.973 4.646 -1.022 3.879 C-1 2 -1 2 0 0 Z " fill="#1B1D1D" transform="translate(36,61)"/>
<path d="M0 0 C1.906 3.212 2.223 5.539 2.125 9.25 C2.107 10.142 2.089 11.034 2.07 11.953 C2.047 12.629 2.024 13.304 2 14 C1.01 14 0.02 14 -1 14 C-1.027 12.042 -1.046 10.083 -1.062 8.125 C-1.074 7.034 -1.086 5.944 -1.098 4.82 C-1 2 -1 2 0 0 Z " fill="#708D5B" transform="translate(31,67)"/>
<path d="M0 0 C2.834 3.203 3.521 5.781 4 10 C1.69 10 -0.62 10 -3 10 C-2.34 9.67 -1.68 9.34 -1 9 C-1.021 7.701 -1.041 6.401 -1.062 5.062 C-1.084 3.708 -1.071 2.352 -1 1 C-0.67 0.67 -0.34 0.34 0 0 Z " fill="#2A6E81" transform="translate(215,24)"/>
<path d="M0 0 C0.66 0.33 1.32 0.66 2 1 C1.67 4.3 1.34 7.6 1 11 C0.34 11 -0.32 11 -1 11 C-1.027 9.354 -1.046 7.708 -1.062 6.062 C-1.074 5.146 -1.086 4.229 -1.098 3.285 C-1 1 -1 1 0 0 Z M-8 11 C-5.69 11 -3.38 11 -1 11 C-1 11.33 -1 11.66 -1 12 C-3.31 12 -5.62 12 -8 12 C-8 11.67 -8 11.34 -8 11 Z " fill="#0B819D" transform="translate(213,22)"/>
<path d="M0 0 C0.99 0 1.98 0 3 0 C2.886 1.772 2.758 3.542 2.625 5.312 C2.521 6.792 2.521 6.792 2.414 8.301 C2 11 2 11 0 14 C0 9.38 0 4.76 0 0 Z " fill="#292D2D" transform="translate(109,47)"/>
<path d="M0 0 C0.99 0.495 0.99 0.495 2 1 C3.176 5.998 2.962 9.267 1 14 C0.67 14 0.34 14 0 14 C0 9.38 0 4.76 0 0 Z " fill="#272A2A" transform="translate(218,55)"/>
<path d="M0 0 C2.762 2.762 2.579 5.207 3 9 C1.68 9 0.36 9 -1 9 C-0.67 6.03 -0.34 3.06 0 0 Z " fill="#405053" transform="translate(107,33)"/>
<path d="M0 0 C0.33 0 0.66 0 1 0 C1 7.26 1 14.52 1 22 C0.67 22 0.34 22 0 22 C0 14.74 0 7.48 0 0 Z " fill="#2F8149" transform="translate(170,91)"/>
<path d="M0 0 C3.775 1.091 6.47 1.908 9 5 C5.656 4.443 2.967 3.648 0 2 C0 1.34 0 0.68 0 0 Z " fill="#000000" transform="translate(146,12)"/>
<path d="M0 0 C2.565 2.565 2.54 4.477 3 8 C2.01 8 1.02 8 0 8 C0 5.36 0 2.72 0 0 Z " fill="#425457" transform="translate(216,26)"/>
</svg>