<svg width="72" height="72" viewBox="0 0 72 72" fill="none" xmlns="http://www.w3.org/2000/svg">
<g clip-path="url(#clip0_1837_1578)">
<path d="M48.1181 11.4069H28.8728C28.2723 11.4069 27.79 10.9306 27.79 10.3377C27.79 9.74473 28.2723 9.26843 28.8728 9.26843H48.1181C48.7186 9.26843 49.201 9.74473 49.201 10.3377C49.201 10.9306 48.7186 11.4069 48.1181 11.4069Z" fill="#215679"/>
<path d="M68.6628 22.0993H3.33716C1.49631 22.0993 0 20.6218 0 18.8041V12.5636C0 10.7459 1.49631 9.26843 3.33716 9.26843H10.4545C11.055 9.26843 11.5373 9.74473 11.5373 10.3377C11.5373 10.9306 11.055 11.4069 10.4545 11.4069H3.33716C2.68745 11.4069 2.16571 11.9318 2.16571 12.5636V18.8041C2.16571 19.4456 2.68745 19.9608 3.33716 19.9608H68.6628C69.3126 19.9608 69.8343 19.4456 69.8343 18.8041V12.5636C69.8343 11.9221 69.3027 11.4069 68.6628 11.4069H61.5455C60.945 11.4069 60.4627 10.9306 60.4627 10.3377C60.4627 9.74473 60.945 9.26843 61.5455 9.26843H68.6628C70.5037 9.26843 72 10.7459 72 12.5636V18.8041C72 20.6218 70.5037 22.0993 68.6628 22.0993Z" fill="#215679"/>
<path d="M20.0919 11.4069H14.2444C13.644 11.4069 13.1616 10.9306 13.1616 10.3377C13.1616 9.74473 13.644 9.26843 14.2444 9.26843H20.0919C20.6924 9.26843 21.1747 9.74473 21.1747 10.3377C21.1747 10.9306 20.6924 11.4069 20.0919 11.4069Z" fill="#215679"/>
<path d="M57.7555 11.4069H51.9081C51.3076 11.4069 50.8253 10.9306 50.8253 10.3377C50.8253 9.74473 51.3076 9.26843 51.9081 9.26843H57.7555C58.356 9.26843 58.8384 9.74473 58.8384 10.3377C58.8384 10.9306 58.356 11.4069 57.7555 11.4069Z" fill="#215679"/>
<path d="M65.1386 69H6.87121C5.08942 69 3.64233 67.5711 3.64233 65.8117V21.0301C3.64233 20.4371 4.1247 19.9608 4.72519 19.9608H67.2748C67.8753 19.9608 68.3577 20.4371 68.3577 21.0301V65.8117C68.3577 67.5711 66.9106 69 65.1288 69H65.1386ZM5.80804 22.0993V65.8117C5.80804 66.3852 6.28056 66.8615 6.87121 66.8615H65.1386C65.7194 66.8615 66.2018 66.3949 66.2018 65.8117V22.0993H5.80804Z" fill="#215679"/>
<path d="M62.3626 64.1495H27.7703C27.1698 64.1495 26.6874 63.6732 26.6874 63.0803C26.6874 62.4874 27.1698 62.0111 27.7703 62.0111H61.2797V26.9595H10.7301V62.0111H22.8285C23.429 62.0111 23.9114 62.4874 23.9114 63.0803C23.9114 63.6732 23.429 64.1495 22.8285 64.1495H9.64725C9.04676 64.1495 8.56439 63.6732 8.56439 63.0803V25.8902C8.56439 25.2973 9.04676 24.821 9.64725 24.821H62.3626C62.9631 24.821 63.4454 25.2973 63.4454 25.8902V63.0803C63.4454 63.6732 62.9631 64.1495 62.3626 64.1495Z" fill="#215679"/>
<path d="M12.3544 16.6851C10.7104 16.6851 9.37164 15.3631 9.37164 13.7398V6.94527C9.37164 5.32197 10.7104 4 12.3544 4C13.9984 4 15.3372 5.32197 15.3372 6.94527V13.7495C15.3372 15.3728 13.9984 16.6948 12.3544 16.6948V16.6851ZM12.3544 6.13848C11.9016 6.13848 11.5374 6.49813 11.5374 6.94527V13.7495C11.5374 14.1966 11.9016 14.5563 12.3544 14.5563C12.8072 14.5563 13.1715 14.1966 13.1715 13.7495V6.94527C13.1715 6.49813 12.8072 6.13848 12.3544 6.13848Z" fill="#215679"/>
<path d="M21.9918 16.6851C20.3478 16.6851 19.009 15.3631 19.009 13.7398V6.94527C19.009 5.32197 20.3478 4 21.9918 4C23.6357 4 24.9745 5.32197 24.9745 6.94527V13.7495C24.9745 15.3728 23.6357 16.6948 21.9918 16.6948V16.6851ZM21.9918 6.13848C21.5389 6.13848 21.1747 6.49813 21.1747 6.94527V13.7495C21.1747 14.1966 21.5389 14.5563 21.9918 14.5563C22.4446 14.5563 22.8088 14.1966 22.8088 13.7495V6.94527C22.8088 6.49813 22.4446 6.13848 21.9918 6.13848Z" fill="#215679"/>
<path d="M50.0082 16.6851C48.3643 16.6851 47.0255 15.3631 47.0255 13.7398V6.94527C47.0255 5.32197 48.3643 4 50.0082 4C51.6522 4 52.991 5.32197 52.991 6.94527V13.7495C52.991 15.3728 51.6522 16.6948 50.0082 16.6948V16.6851ZM50.0082 6.13848C49.5554 6.13848 49.1912 6.49813 49.1912 6.94527V13.7495C49.1912 14.1966 49.5554 14.5563 50.0082 14.5563C50.4611 14.5563 50.8253 14.1966 50.8253 13.7495V6.94527C50.8253 6.49813 50.4611 6.13848 50.0082 6.13848Z" fill="#215679"/>
<path d="M59.6456 16.6851C58.0016 16.6851 56.6628 15.3631 56.6628 13.7398V6.94527C56.6628 5.32197 58.0016 4 59.6456 4C61.2896 4 62.6284 5.32197 62.6284 6.94527V13.7495C62.6284 15.3728 61.2896 16.6948 59.6456 16.6948V16.6851ZM59.6456 6.13848C59.1928 6.13848 58.8285 6.49813 58.8285 6.94527V13.7495C58.8285 14.1966 59.1928 14.5563 59.6456 14.5563C60.0984 14.5563 60.4627 14.1966 60.4627 13.7495V6.94527C60.4627 6.49813 60.0984 6.13848 59.6456 6.13848Z" fill="#215679"/>
<path d="M22.8187 64.1495C22.2182 64.1495 21.7359 63.6732 21.7359 63.0803V51.1923C21.7359 50.5994 22.2182 50.1231 22.8187 50.1231C23.4192 50.1231 23.9016 50.5994 23.9016 51.1923V63.0803C23.9016 63.6732 23.4192 64.1495 22.8187 64.1495Z" fill="#215679"/>
<path d="M22.8187 38.8475C22.2182 38.8475 21.7359 38.3712 21.7359 37.7782V25.8902C21.7359 25.2973 22.2182 24.821 22.8187 24.821C23.4192 24.821 23.9016 25.2973 23.9016 25.8902V37.7782C23.9016 38.3712 23.4192 38.8475 22.8187 38.8475Z" fill="#215679"/>
<path d="M36 64.1496C35.3995 64.1496 34.9171 63.6733 34.9171 63.0803V51.0951C34.9171 50.5022 35.3995 50.0259 36 50.0259C36.6005 50.0259 37.0828 50.5022 37.0828 51.0951V63.0803C37.0828 63.6733 36.6005 64.1496 36 64.1496Z" fill="#215679"/>
<path d="M36 38.9447C35.3995 38.9447 34.9171 38.4684 34.9171 37.8754V25.8902C34.9171 25.2973 35.3995 24.821 36 24.821C36.6005 24.821 37.0828 25.2973 37.0828 25.8902V37.8754C37.0828 38.4684 36.6005 38.9447 36 38.9447Z" fill="#215679"/>
<path d="M49.1813 64.1495C48.5808 64.1495 48.0984 63.6732 48.0984 63.0803V25.8902C48.0984 25.2973 48.5808 24.821 49.1813 24.821C49.7818 24.821 50.2641 25.2973 50.2641 25.8902V63.0803C50.2641 63.6732 49.7818 64.1495 49.1813 64.1495Z" fill="#215679"/>
<path d="M62.3626 39.3529H36.3938C35.7933 39.3529 35.3109 38.8766 35.3109 38.2837C35.3109 37.6907 35.7933 37.2144 36.3938 37.2144H62.3626C62.9631 37.2144 63.4454 37.6907 63.4454 38.2837C63.4454 38.8766 62.9631 39.3529 62.3626 39.3529Z" fill="#215679"/>
<path d="M22.3265 39.3529H9.64725C9.04676 39.3529 8.56439 38.8766 8.56439 38.2837C8.56439 37.6907 9.04676 37.2144 9.64725 37.2144H22.3265C22.927 37.2144 23.4093 37.6907 23.4093 38.2837C23.4093 38.8766 22.927 39.3529 22.3265 39.3529Z" fill="#215679"/>
<path d="M62.3626 51.7463H36.3938C35.7933 51.7463 35.3109 51.27 35.3109 50.6771C35.3109 50.0841 35.7933 49.6078 36.3938 49.6078H62.3626C62.9631 49.6078 63.4454 50.0841 63.4454 50.6771C63.4454 51.27 62.9631 51.7463 62.3626 51.7463Z" fill="#215679"/>
<path d="M22.3265 51.7463H9.64725C9.04676 51.7463 8.56439 51.27 8.56439 50.6771C8.56439 50.0841 9.04676 49.6078 9.64725 49.6078H22.3265C22.927 49.6078 23.4093 50.0841 23.4093 50.6771C23.4093 51.27 22.927 51.7463 22.3265 51.7463Z" fill="#215679"/>
<path d="M29.3552 54.8666C23.557 54.8666 18.8417 50.2105 18.8417 44.4853C18.8417 38.76 23.557 34.1039 29.3552 34.1039C35.1534 34.1039 39.8687 38.76 39.8687 44.4853C39.8687 50.2105 35.1534 54.8666 29.3552 54.8666ZM29.3552 36.2424C24.7482 36.2424 21.0074 39.9361 21.0074 44.4853C21.0074 49.0344 24.7482 52.7281 29.3552 52.7281C33.9623 52.7281 37.703 49.0344 37.703 44.4853C37.703 39.9361 33.9623 36.2424 29.3552 36.2424Z" fill="#215679"/>
<path d="M28.3708 48.49C28.0952 48.49 27.8195 48.3831 27.6029 48.179L24.9155 45.5351C24.4922 45.1171 24.4922 44.4367 24.9155 44.0187C25.3388 43.6007 26.0279 43.6007 26.4512 44.0187L28.42 45.9628L32.5939 42.4343C33.0468 42.0552 33.7358 42.1038 34.1198 42.5509C34.5135 42.998 34.4545 43.6785 34.0016 44.0576L29.0697 48.2276C28.863 48.4026 28.6169 48.4803 28.3609 48.4803L28.3708 48.49Z" fill="#215679"/>
<path d="M57.0172 33.404H54.6251C54.0246 33.404 53.5423 32.9277 53.5423 32.3348C53.5423 31.7419 54.0246 31.2656 54.6251 31.2656H57.0172C57.6177 31.2656 58.1001 31.7419 58.1001 32.3348C58.1001 32.9277 57.6177 33.404 57.0172 33.404Z" fill="#215679"/>
<path d="M43.7867 57.9577H41.3946C40.7941 57.9577 40.3117 57.4814 40.3117 56.8884C40.3117 56.2955 40.7941 55.8192 41.3946 55.8192H43.7867C44.3872 55.8192 44.8696 56.2955 44.8696 56.8884C44.8696 57.4814 44.3872 57.9577 43.7867 57.9577Z" fill="#215679"/>
</g>
<defs>
<clipPath id="clip0_1837_1578">
<rect width="72" height="65" fill="white" transform="translate(0 4)"/>
</clipPath>
</defs>
</svg>
